<svg width="76" height="49" viewBox="0 0 76 49" fill="none" xmlns="http://www.w3.org/2000/svg">
<path d="M35.3254 17.3297L35.3239 17.3253C33.4315 11.972 29.2516 7.27384 24.8523 4.48498C22.6492 3.08834 20.3382 2.13649 18.1756 1.84759C16.0077 1.55799 13.9105 1.92971 12.2905 3.29122C11.8339 3.67417 11.45 4.15168 11.3126 4.72504C11.1618 5.35486 11.3451 5.95036 11.748 6.40059C12.1185 6.81476 12.6413 7.07624 13.1849 7.23679C13.7412 7.40108 14.3963 7.48283 15.1207 7.48283C15.4488 7.48283 15.9619 7.68661 16.6161 8.3001C17.2479 8.89269 17.8976 9.76371 18.4851 10.8207C19.6654 12.9442 20.4932 15.6312 20.4932 17.8964C20.4932 18.5297 20.4665 18.861 20.4064 19.0624C20.3718 19.1784 20.3507 19.1957 20.2703 19.2355C20.1076 19.3162 19.7732 19.4031 19.0738 19.4536C18.3956 19.5026 17.4921 19.512 16.262 19.512C8.97848 19.512 3.76989 22.6404 1.821 27.3204C-0.131303 32.0086 1.36329 37.8283 6.58239 42.8247C10.3208 46.4132 14.4875 47.9792 18.5368 47.9031C22.5718 47.8274 26.3983 46.1235 29.4867 43.3384C35.6606 37.7706 38.976 27.8127 35.3254 17.3297Z" fill="#F5AE31" stroke="white" stroke-width="2"/>
<path d="M49.4939 46.4343L49.4949 46.4346C58.9027 49.3312 66.818 46.3605 71.1519 40.0532C75.4562 33.789 76.0872 24.445 71.4743 14.8031C69.3849 10.3991 64.9717 6.36602 60.4564 3.82769C58.1884 2.5527 55.8435 1.62515 53.6882 1.22261C51.5548 0.824151 49.4735 0.917053 47.8588 1.86187C47.4546 2.09673 46.9644 2.44643 46.7338 2.99552C46.4571 3.65462 46.6695 4.27271 46.9866 4.7323C47.2848 5.16453 47.7536 5.58422 48.3119 6.00928C48.8852 6.44577 49.627 6.94226 50.5376 7.51743C53.8698 9.6404 55.9435 12.3882 56.5517 14.4624C56.8571 15.5038 56.7523 16.2128 56.487 16.6222C56.2469 16.9929 55.7063 17.372 54.4974 17.372C45.9931 17.372 40.6938 23.4125 39.5484 30.0066C38.4019 36.6066 41.3934 43.93 49.4939 46.4343Z" fill="#F5AE31" stroke="white" stroke-width="2"/>
</svg>
