<?xml version="1.0" encoding="utf-8"?>
<!-- Generator: Adobe Illustrator 26.0.0, SVG Export Plug-In . SVG Version: 6.00 Build 0)  -->
<svg version="1.1" id="Layer_1" xmlns="http://www.w3.org/2000/svg" xmlns:xlink="http://www.w3.org/1999/xlink" x="0px" y="0px"
	 viewBox="0 0 306.7 86.1" style="enable-background:new 0 0 306.7 86.1;" xml:space="preserve">
<style type="text/css">
	.st0{fill:#231815;}
	.st1{fill:#2AAB47;}
	.st2{fill:#FFA400;}
</style>
<g>
	<g>
		<path class="st0" d="M14.7,63.5c1.8,0,3.4,0.4,4.8,1.2s2.6,1.9,3.4,3.4s1.3,3.1,1.3,4.9c0,1.7-0.4,3.3-1.2,4.8
			c-0.8,1.5-2,2.6-3.4,3.4s-3.1,1.2-4.9,1.2s-3.4-0.4-4.8-1.2c-1.5-0.8-2.6-2-3.4-3.4s-1.2-3-1.2-4.8c0-1.7,0.4-3.3,1.2-4.8
			s1.9-2.6,3.4-3.5C11.2,63.9,12.9,63.5,14.7,63.5z M8.7,72.9c0,1.2,0.3,2.3,0.8,3.3s1.2,1.7,2.2,2.3c0.9,0.5,2,0.8,3.1,0.8
			c1.8,0,3.2-0.6,4.3-1.8c1.1-1.2,1.7-2.7,1.7-4.6c0-1.2-0.3-2.3-0.8-3.3s-1.2-1.7-2.2-2.3c-0.9-0.5-2-0.8-3.1-0.8
			c-1.2,0-2.2,0.3-3.1,0.8c-0.9,0.5-1.6,1.3-2.1,2.3C8.9,70.6,8.7,71.7,8.7,72.9z"/>
		<path class="st0" d="M34.1,69.6c1.2,0,2.2,0.4,2.9,1.3s1.1,2,1.1,3.4v7.8h-3v-7.5c0-0.8-0.2-1.4-0.5-1.9c-0.4-0.5-0.8-0.7-1.5-0.7
			c-0.5,0-0.9,0.1-1.3,0.4c-0.4,0.3-0.9,0.8-1.4,1.5v8.2h-3V69.8h3v1.7c0.6-0.7,1.1-1.2,1.7-1.5C32.8,69.7,33.4,69.6,34.1,69.6z"/>
		<path class="st0" d="M46.6,69.6c1.7,0,3,0.6,4,1.7c1,1.2,1.5,2.8,1.5,4.8v0.5H44c0.1,1.1,0.5,1.9,1.1,2.5s1.5,0.9,2.6,0.9
			c0.7,0,1.4-0.1,2.1-0.4c0.7-0.3,1.4-0.7,2.1-1.2v2.4c-1.3,1-3,1.5-4.9,1.5c-1.8,0-3.3-0.6-4.4-1.8c-1.1-1.2-1.7-2.7-1.7-4.7
			c0-1.9,0.5-3.4,1.6-4.6C43.5,70.2,44.9,69.6,46.6,69.6z M49.2,74.7c-0.1-0.9-0.3-1.6-0.8-2.1c-0.4-0.5-1-0.8-1.8-0.8
			s-1.4,0.2-1.8,0.7c-0.5,0.5-0.8,1.2-0.9,2.1h5.3V74.7z"/>
		<path class="st0" d="M61.6,69.6c1.2,0,2.2,0.4,2.9,1.3c0.7,0.9,1.1,2,1.1,3.4v7.8h-3v-7.5c0-0.8-0.2-1.4-0.5-1.9S61.3,72,60.6,72
			c-0.5,0-0.9,0.1-1.3,0.4c-0.4,0.3-0.9,0.8-1.4,1.5v8.2h-3V69.8h3v1.7c0.6-0.7,1.1-1.2,1.7-1.5C60.3,69.7,60.9,69.6,61.6,69.6z"/>
		<path class="st0" d="M74.1,69.6c1.7,0,3,0.6,4,1.7c1,1.2,1.5,2.8,1.5,4.8v0.5h-8.1c0.1,1.1,0.5,1.9,1.1,2.5s1.5,0.9,2.6,0.9
			c0.7,0,1.4-0.1,2.1-0.4s1.4-0.7,2.1-1.2v2.4c-1.3,1-3,1.5-4.9,1.5c-1.8,0-3.3-0.6-4.4-1.8c-1.1-1.2-1.7-2.7-1.7-4.7
			c0-1.9,0.5-3.4,1.6-4.6C71.1,70.2,72.4,69.6,74.1,69.6z M76.8,74.7c-0.1-0.9-0.3-1.6-0.8-2.1c-0.4-0.5-1-0.8-1.8-0.8
			s-1.4,0.2-1.8,0.7c-0.5,0.5-0.8,1.2-0.9,2.1h5.3V74.7z"/>
		<path class="st0" d="M86.3,69.6c0.6,0,1.2,0.1,1.8,0.2c0.6,0.2,1.1,0.4,1.8,0.7v2.7c-0.6-0.4-1.2-0.7-1.8-1
			c-0.7-0.2-1.2-0.4-1.8-0.4c-0.4,0-0.8,0.1-1,0.3c-0.2,0.2-0.4,0.4-0.4,0.8c0,0.2,0.1,0.4,0.3,0.6c0.2,0.2,0.8,0.5,1.7,1
			c1.3,0.7,2.2,1.4,2.8,2c0.5,0.6,0.8,1.3,0.8,2.2c0,1.2-0.4,2.1-1.2,2.8c-0.8,0.7-1.8,1-3.1,1c-0.8,0-1.6-0.1-2.3-0.3
			c-0.7-0.2-1.3-0.4-1.8-0.7v-2.7c1.5,0.9,2.7,1.3,3.7,1.3c0.5,0,0.9-0.1,1.3-0.3c0.3-0.2,0.5-0.5,0.5-0.8c0-0.2-0.1-0.4-0.2-0.5
			c-0.1-0.2-0.3-0.3-0.5-0.5s-0.9-0.6-2.1-1.2c-0.9-0.5-1.6-1-2.1-1.5c-0.4-0.6-0.7-1.2-0.7-2c0-1.1,0.4-2,1.2-2.6
			C84,69.9,85,69.6,86.3,69.6z"/>
		<path class="st0" d="M97,69.6c0.6,0,1.2,0.1,1.8,0.2c0.6,0.2,1.1,0.4,1.8,0.7v2.7c-0.6-0.4-1.2-0.7-1.8-1
			c-0.7-0.2-1.2-0.4-1.8-0.4c-0.4,0-0.8,0.1-1,0.3c-0.2,0.2-0.4,0.4-0.4,0.8c0,0.2,0.1,0.4,0.3,0.6c0.2,0.2,0.8,0.5,1.7,1
			c1.3,0.7,2.2,1.4,2.8,2c0.5,0.6,0.8,1.3,0.8,2.2c0,1.2-0.4,2.1-1.2,2.8c-0.8,0.7-1.8,1-3.1,1c-0.8,0-1.6-0.1-2.3-0.3
			c-0.7-0.2-1.3-0.4-1.8-0.7v-2.7c1.5,0.9,2.7,1.3,3.7,1.3c0.5,0,0.9-0.1,1.3-0.3c0.3-0.2,0.5-0.5,0.5-0.8c0-0.2-0.1-0.4-0.2-0.5
			c-0.1-0.2-0.3-0.3-0.5-0.5s-0.9-0.6-2.1-1.2c-0.9-0.5-1.6-1-2.1-1.5c-0.4-0.6-0.7-1.2-0.7-2c0-1.1,0.4-2,1.2-2.6
			C94.7,69.9,95.7,69.6,97,69.6z"/>
		<path class="st0" d="M118.1,63.7c1.6,0,2.9,0.4,3.8,1.3c1,0.9,1.5,2,1.5,3.3c0,0.8-0.2,1.6-0.6,2.2s-1,1.2-1.8,1.5v0.2
			c1.2,0.3,2.1,0.9,2.8,1.7c0.7,0.9,1,1.9,1,3c0,1-0.2,1.9-0.7,2.7c-0.5,0.8-1.2,1.4-2,1.8c-0.9,0.4-1.9,0.6-3.1,0.6h-7.2V63.7
			H118.1z M117.2,71.4c0.9,0,1.6-0.2,2.1-0.7c0.5-0.4,0.8-1.1,0.8-1.9c0-0.7-0.2-1.3-0.7-1.7c-0.5-0.4-1.1-0.6-1.8-0.6h-2.4v4.9
			C115.2,71.4,117.2,71.4,117.2,71.4z M118,79.4c1.1,0,2-0.2,2.5-0.7c0.6-0.5,0.9-1.1,0.9-2c0-0.8-0.3-1.4-0.9-1.9s-1.3-0.7-2.3-0.7
			h-3.1v5.2L118,79.4L118,79.4z"/>
		<path class="st0" d="M129.5,64.1c0.5,0,0.9,0.2,1.2,0.5c0.3,0.4,0.5,0.8,0.5,1.3s-0.2,0.9-0.5,1.3s-0.7,0.6-1.2,0.6
			s-0.9-0.2-1.2-0.6s-0.5-0.8-0.5-1.3s0.2-0.9,0.5-1.3C128.6,64.3,129,64.1,129.5,64.1z M131,69.8v12.3h-3V69.8H131z"/>
		<path class="st0" d="M140.1,69.6c1.2,0,2.3,0.3,3.3,0.8s1.7,1.3,2.3,2.3c0.5,1,0.8,2.1,0.8,3.3c0,1.3-0.3,2.4-0.8,3.3
			c-0.5,1-1.3,1.7-2.3,2.3c-1,0.6-2.1,0.8-3.3,0.8s-2.3-0.3-3.3-0.8c-1-0.6-1.7-1.3-2.2-2.3s-0.8-2.1-0.8-3.3c0-1.2,0.3-2.3,0.8-3.3
			s1.3-1.7,2.3-2.2C137.8,69.9,138.9,69.6,140.1,69.6z M137,75.9c0,1.2,0.3,2.2,0.8,2.9c0.6,0.7,1.3,1.1,2.3,1.1s1.8-0.4,2.3-1.1
			c0.6-0.7,0.8-1.7,0.8-3c0-1.2-0.3-2.2-0.9-2.9c-0.6-0.7-1.3-1-2.3-1c-0.9,0-1.7,0.4-2.2,1.1C137.2,73.8,137,74.8,137,75.9z"/>
		<path class="st0" d="M152.4,66.6h0.2v3.3h3.9v2.5h-3.9v5.7c0,0.6,0.2,1,0.5,1.3s0.7,0.5,1.3,0.5c0.7,0,1.5-0.3,2.4-0.8v2.6
			c-1.1,0.5-2.1,0.8-3.1,0.8c-1.3,0-2.3-0.4-3-1.1c-0.7-0.8-1.1-1.8-1.1-3.1v-5.9h-1.8v-0.5L152.4,66.6z"/>
		<path class="st0" d="M164.2,69.6c1.7,0,3,0.6,4,1.7c1,1.2,1.5,2.8,1.5,4.8v0.5h-8.1c0.1,1.1,0.5,1.9,1.1,2.5s1.5,0.9,2.6,0.9
			c0.7,0,1.4-0.1,2.1-0.4c0.7-0.3,1.4-0.7,2.1-1.2v2.4c-1.3,1-3,1.5-4.9,1.5c-1.8,0-3.3-0.6-4.4-1.8c-1.1-1.2-1.7-2.7-1.7-4.7
			c0-1.9,0.5-3.4,1.6-4.6C161.1,70.2,162.5,69.6,164.2,69.6z M166.8,74.7c-0.1-0.9-0.3-1.6-0.8-2.1c-0.4-0.5-1-0.8-1.8-0.8
			s-1.4,0.2-1.8,0.7c-0.5,0.5-0.8,1.2-0.9,2.1h5.3V74.7z"/>
		<path class="st0" d="M178,69.6c1.3,0,2.5,0.3,3.6,0.8v2.8c-1.1-0.7-2.1-1-3-1c-1,0-1.9,0.3-2.5,1c-0.7,0.7-1,1.6-1,2.8
			c0,1.2,0.3,2.1,1,2.8c0.7,0.7,1.5,1.1,2.6,1.1c0.8,0,1.9-0.3,3.1-0.9v2.6c-1.2,0.5-2.4,0.8-3.7,0.8c-1.9,0-3.4-0.6-4.5-1.7
			c-1.2-1.1-1.7-2.7-1.7-4.5c0-2,0.6-3.5,1.7-4.7C174.8,70.2,176.2,69.6,178,69.6z"/>
		<path class="st0" d="M187.7,63.7v7.8h0.1c1-1.3,2.1-2,3.5-2c1.2,0,2.2,0.4,2.9,1.3s1.1,2,1.1,3.4v7.9h-3v-7.3c0-0.8-0.2-1.5-0.5-2
			c-0.4-0.5-0.9-0.7-1.5-0.7c-0.5,0-0.9,0.1-1.3,0.4c-0.4,0.3-0.8,0.7-1.3,1.4V82h-3V63.7H187.7z"/>
		<path class="st0" d="M215.7,63.5c1,0,1.9,0.1,2.9,0.4c0.9,0.2,1.9,0.6,3,1.2v3.3c-1.1-0.7-2-1.1-2.9-1.4s-1.8-0.4-2.8-0.4
			c-1.2,0-2.3,0.3-3.3,0.8s-1.7,1.3-2.3,2.3c-0.5,1-0.8,2.1-0.8,3.3c0,1.2,0.3,2.3,0.8,3.3s1.3,1.7,2.3,2.3c1,0.5,2.1,0.8,3.3,0.8
			c0.9,0,1.8-0.1,2.7-0.4s1.9-0.8,3.2-1.6v3.3c-1.1,0.6-2.1,1.1-3.1,1.3c-0.9,0.3-2,0.4-3.3,0.4c-1.8,0-3.4-0.4-4.9-1.2
			c-1.4-0.8-2.5-1.9-3.4-3.3c-0.8-1.5-1.2-3-1.2-4.8c0-1.9,0.4-3.5,1.3-5c0.8-1.5,2-2.6,3.5-3.4C212.2,63.9,213.8,63.5,215.7,63.5z"
			/>
		<path class="st0" d="M230.5,69.6c1.2,0,2.3,0.3,3.3,0.8s1.7,1.3,2.3,2.3c0.5,1,0.8,2.1,0.8,3.3c0,1.3-0.3,2.4-0.8,3.3
			c-0.5,1-1.3,1.7-2.3,2.3c-1,0.6-2.1,0.8-3.3,0.8s-2.3-0.3-3.3-0.8c-1-0.6-1.7-1.3-2.2-2.3s-0.8-2.1-0.8-3.3c0-1.2,0.3-2.3,0.8-3.3
			s1.3-1.7,2.3-2.2C228.3,69.9,229.4,69.6,230.5,69.6z M227.4,75.9c0,1.2,0.3,2.2,0.8,2.9c0.6,0.7,1.3,1.1,2.3,1.1s1.8-0.4,2.3-1.1
			c0.6-0.7,0.8-1.7,0.8-3c0-1.2-0.3-2.2-0.9-2.9c-0.6-0.7-1.3-1-2.3-1c-0.9,0-1.7,0.4-2.2,1.1C227.7,73.8,227.4,74.8,227.4,75.9z"/>
		<path class="st0" d="M241,78.3c0.5,0,0.9,0.2,1.3,0.6c0.4,0.4,0.6,0.9,0.6,1.4s-0.2,1-0.6,1.4c-0.4,0.4-0.8,0.6-1.3,0.6
			s-1-0.2-1.3-0.6c-0.4-0.4-0.6-0.9-0.6-1.4c0-0.6,0.2-1,0.6-1.4C240.1,78.5,240.5,78.3,241,78.3z"/>
		<path class="st0" d="M247.8,78.5c0.7,0,1.2,0.3,1.6,0.8c0.4,0.5,0.6,1.2,0.6,2.1c0,1.2-0.4,2.2-1.1,3.1c-0.7,0.9-1.6,1.4-2.7,1.6
			v-0.7c0.8-0.7,1.2-1.6,1.2-2.8v-0.2v-0.2c-0.9-0.2-1.4-0.8-1.4-1.8c0-0.5,0.2-1,0.5-1.3C246.8,78.7,247.2,78.5,247.8,78.5z"/>
		<path class="st0" d="M264.1,63.7v15.6h8.3v2.8h-11.6V63.7H264.1z"/>
		<path class="st0" d="M277.8,66.6h0.2v3.3h3.9v2.5H278v5.7c0,0.6,0.2,1,0.5,1.3s0.7,0.5,1.3,0.5c0.7,0,1.5-0.3,2.4-0.8v2.6
			c-1.1,0.5-2.1,0.8-3.1,0.8c-1.3,0-2.3-0.4-3-1.1s-1.1-1.9-1.1-3.2v-5.9h-1.8v-0.5L277.8,66.6z"/>
		<path class="st0" d="M292.2,70.1v-6.4h3v18.4h-5.3c-1.8,0-3.3-0.6-4.4-1.7s-1.7-2.7-1.7-4.6c0-1.2,0.3-2.2,0.8-3.2
			c0.5-0.9,1.2-1.7,2.1-2.2s1.9-0.8,2.9-0.8C290.4,69.6,291.3,69.8,292.2,70.1z M290.6,79.7h1.6v-7.1c-0.6-0.3-1.3-0.5-1.9-0.5
			c-1,0-1.8,0.3-2.4,1s-0.9,1.6-0.9,2.7C286.9,78.3,288.1,79.7,290.6,79.7z"/>
		<path class="st0" d="M300.4,78.3c0.5,0,0.9,0.2,1.3,0.6s0.6,0.9,0.6,1.4s-0.2,1-0.6,1.4s-0.8,0.6-1.3,0.6s-1-0.2-1.3-0.6
			c-0.4-0.4-0.6-0.9-0.6-1.4c0-0.6,0.2-1,0.6-1.4C299.4,78.5,299.9,78.3,300.4,78.3z"/>
	</g>
	<g>
		<g>
			<path class="st1" d="M251.4,15.9c-0.1,1.5,0.5,2.8,6.2,6.2c5.9,3.5,7.8,8.6,6.9,13.9c-0.7,4.2-2.9,8.6-6.5,11.3
				c-3.9,3-7.7,4.3-13.6,4.2c-7.6-0.1-14.1-5.2-16-8.4l3.1-3.8l4.6-5.6c1.6,2.2,3.2,3.8,4.9,4.8c1.6,1,3.4,1.5,5.2,1.6
				c1.6,0,2.8-0.3,3.9-1.1c1-0.8,1.6-1.8,1.8-3.1c0.2-1.7-1.4-3.6-4.8-5.7c-0.3-0.2-5.6-3.3-7.1-6.4c-1.3-2.6-1.7-5.8-0.8-9.2
				c2-7.5,9.5-13.1,18.2-13c2.6,0,5,0.5,7.2,1.5s4.3,2.4,6.1,4.2l-2.6,3.6l-4.1,5.7c-1.5-1.5-2.8-2.6-4.1-3.4
				c-1.3-0.7-2.5-1.1-3.6-1.1c-1.3,0-2.4,0.2-3.4,1C252,13.9,251.4,14.9,251.4,15.9z"/>
			<path class="st1" d="M287.5,15.9c-0.1,1.5,0.5,2.8,6.2,6.2c5.9,3.5,7.8,8.6,6.9,13.9c-0.7,4.2-2.9,8.6-6.5,11.3
				c-3.9,3-7.7,4.3-13.6,4.2c-7.6-0.1-14.1-5.2-16-8.4l3.1-3.8l4.6-5.6c1.6,2.2,3.2,3.8,4.9,4.8c1.6,1,3.4,1.5,5.2,1.6
				c1.6,0,2.8-0.3,3.9-1.1c1-0.8,1.6-1.8,1.8-3.1c0.2-1.7-1.4-3.6-4.8-5.7c-0.3-0.2-5.6-3.3-7.1-6.4c-1.3-2.6-1.7-5.8-0.8-9.2
				c2-7.5,9.5-13.1,18.2-13c2.6,0,5,0.5,7.2,1.5s4.3,2.4,6.1,4.2l-2.6,3.6l-4.1,5.7c-1.5-1.5-2.8-2.6-4.1-3.4
				c-1.3-0.7-2.5-1.1-3.6-1.1c-1.3,0-2.4,0.2-3.4,1C288.1,13.9,287.5,14.9,287.5,15.9z"/>
			<g>
				<g>
					<path class="st2" d="M50.4,26.5c0,3.5-0.6,6.7-1.9,9.7c-1.2,3-3.1,5.7-5.4,8.1c-2.4,2.4-5.2,4.2-8.3,5.5s-6.3,1.9-9.6,1.9
						c-3.4,0-6.6-0.6-9.7-1.9c-3.1-1.3-5.8-3.1-8.1-5.5c-2.4-2.4-4.3-5.1-5.5-8.1c-1.3-3-1.9-6.3-1.9-9.7s0.6-6.7,1.9-9.7
						S5,11,7.4,8.7c2.3-2.4,5.1-4.2,8.1-5.5c3.1-1.4,6.4-2,9.7-2c3.4,0,6.6,0.6,9.7,1.9s5.9,3.1,8.2,5.5c2.4,2.4,4.2,5.1,5.4,8.1
						C49.8,19.8,50.4,23,50.4,26.5z M25.2,40.6c3.6,0,6.5-1.3,8.8-4s3.5-6.1,3.5-10.1s-1.2-7.4-3.5-10.1c-2.4-2.7-5.3-4-8.8-4
						c-3.6,0-6.5,1.3-8.8,4s-3.5,6.1-3.5,10.1c0,4.1,1.1,7.5,3.4,10.2C18.6,39.3,21.6,40.6,25.2,40.6z"/>
					<path class="st2" d="M57.1,50.4V2.3h13.3L86,26.1c0.3,0.5,0.9,1.5,1.7,3c0.8,1.5,1.6,3.3,2.6,5.4c-0.3-2-0.4-3.8-0.6-5.3
						c-0.1-1.6-0.2-2.9-0.2-4.1V2.3h12.3v48.2H88.6L73,26.5c-0.4-0.5-0.9-1.5-1.7-3c-0.8-1.5-1.6-3.3-2.6-5.4c0.3,2,0.4,3.8,0.6,5.4
						c0.1,1.6,0.2,2.9,0.2,4.1v22.8C69.5,50.4,57.1,50.4,57.1,50.4z"/>
					<path class="st2" d="M108.7,50.4V2.3h33.6v10.6h-21.1v8.3h20.1v10.3h-20.1v8.1h21.1v10.8H108.7z"/>
				</g>
				<path class="st1" d="M208.3,39.7h18l-2.9,10.7H193l13.2-48.2h30.3l-3,11.1h-18l-2.1,7.9h17l-2.8,10.5h-17L208.3,39.7z"/>
				<path class="st1" d="M147.2,50.4l13.3-48.2h12.7c0,0,4.5,21.7,5.3,25.4c0.2,0.9,0.4,2.6,0.5,3.5c0-0.7,0.2-2,0.7-3.8
					s6.9-25.1,6.9-25.1h12l-13.3,48.2H173c0,0-4.9-22.4-5.4-24.7c-0.6-2.8-0.8-3.9-0.8-4.9c-0.2,1.2-0.5,3.1-1,4.8
					s-6.7,24.8-6.7,24.8H147.2z"/>
			</g>
		</g>
	</g>
</g>
</svg>
