<svg width="523" height="741" viewBox="0 0 523 741" fill="none" xmlns="http://www.w3.org/2000/svg">
<mask id="mask0_314_147" style="mask-type:alpha" maskUnits="userSpaceOnUse" x="0" y="0" width="523" height="741">
<path d="M0 240C0 107.452 107.452 0 240 0H283C415.548 0 523 107.452 523 240V741H5C2.23858 741 0 738.761 0 736V240Z" fill="white"/>
</mask>
<g mask="url(#mask0_314_147)">
<g filter="url(#filter0_f_314_147)">
<path d="M530 413.5C530 498.552 497.343 637.5 414.5 637.5C331.657 637.5 342.564 615.455 342.564 530.403C342.564 445.351 -46.5 135 325.5 211C468.5 204.5 530 328.448 530 413.5Z" fill="#F5AE31"/>
<path d="M325.4 211.49L325.461 211.502L325.523 211.5C396.854 208.257 447.83 237.542 480.987 278.234C514.159 318.943 529.5 371.079 529.5 413.5C529.5 455.976 521.343 511.91 502.853 557.205C484.348 602.538 455.593 637 414.5 637C393.798 637 379.012 635.621 368.463 632.25C357.944 628.889 351.663 623.557 347.918 615.632C344.153 607.665 342.926 597.031 342.654 583.009C342.506 575.327 342.643 566.671 342.797 556.914C342.925 548.852 343.064 540.039 343.064 530.403C343.064 519.621 336.914 505.363 327.002 488.885C317.074 472.381 303.315 453.559 287.982 433.623C279.804 422.99 271.179 412.04 262.446 400.952C238.412 370.441 213.559 338.888 194.952 310.036C182.269 290.369 172.515 271.996 167.903 256.098C163.289 240.193 163.85 226.878 171.619 217.197C179.402 207.497 194.538 201.291 219.456 199.915C244.357 198.539 278.917 201.993 325.4 211.49Z" stroke="black"/>
</g>
</g>
<defs>
<filter id="filter0_f_314_147" x="4.47766" y="39.1245" width="685.522" height="758.375" filterUnits="userSpaceOnUse" color-interpolation-filters="sRGB">
<feFlood flood-opacity="0" result="BackgroundImageFix"/>
<feBlend mode="normal" in="SourceGraphic" in2="BackgroundImageFix" result="shape"/>
<feGaussianBlur stdDeviation="80" result="effect1_foregroundBlur_314_147"/>
</filter>
</defs>
</svg>
